<svg width="9" height="10" viewBox="0 0 9 10" fill="none" xmlns="http://www.w3.org/2000/svg">
<path d="M1.89028 1.8587C1.89015 2.10936 1.79045 2.34971 1.61312 2.52687C1.43578 2.70403 1.19533 2.80349 0.944666 2.80336C0.694 2.80324 0.45365 2.70354 0.276491 2.5262C0.0993313 2.34887 -0.000125215 2.10842 1.18313e-07 1.85775C0.000125451 1.60709 0.0998224 1.36674 0.277159 1.18958C0.454495 1.01242 0.694945 0.912961 0.945611 0.913086C1.19628 0.913211 1.43663 1.01291 1.61379 1.19024C1.79095 1.36758 1.8904 1.60803 1.89028 1.8587ZM1.91863 3.50324H0.0283542V9.4198H1.91863V3.50324ZM4.90527 3.50324H3.02444V9.4198H4.88637V6.31502C4.88637 4.58542 7.14052 4.42475 7.14052 6.31502V9.4198H9.00717V5.67233C9.00717 2.75658 5.67083 2.86527 4.88637 4.29715L4.90527 3.50324Z" fill="white"/>
</svg>
